#!OML:ASF H:\ManfredETheater\Project 1\Capture day 1\Session 1\subject.ASF
:FULLY-SPECIFIED
:DEGREES
1706
root 1.29365 17.8559 -3.81949 5.10111 1.74091 0.0163151
lowerback 0.691415 -0.212457 -1.20929
upperback -2.11822 -0.284458 1.04445
thorax -2.54938 -0.105786 1.75835
lowerneck -20.2375 -3.57166 -4.34354
upperneck 11.3782 -4.70549 6.63815
head 7.04571 -1.84026 2.31968
rclavicle 8.89561e-015 -1.72943e-014
rhumerus -16.0724 -25.7997 -1.69638
rradius 23.9192
rwrist 4.69722
rhand -18.08 -19.2135
rfingers 7.12502
rthumb 8.19311 -49.0347
lclavicle 8.89561e-015 -1.72943e-014
lhumerus -15.856 26.1662 9.68137
lradius 23.1489
lwrist -18.7676
lhand -15.878 16.8126
lfingers 7.12502
lthumb 10.3179 46.5395
rfemur -7.99017 -1.33326 9.57229
rtibia 26.5162
rfoot -17.1778 -19.0278
rtoes 0.197131
lfemur -11.861 -6.81828 -10.1432
ltibia 29.9984
lfoot -17.3045 10.1747
ltoes -11.8447
1707
root 1.29378 17.8549 -3.81223 5.08431 1.75171 0.0206181
lowerback 0.674222 -0.210617 -1.21366
upperback -2.1131 -0.282036 1.04084
thorax -2.53452 -0.104691 1.7569
lowerneck -20.2366 -3.57494 -4.34991
upperneck 11.3826 -4.70976 6.64588
head 7.04761 -1.84183 2.32275
rclavicle -1.77664e-015 1.63003e-014
rhumerus -16.0644 -25.8123 -1.68178
rradius 23.9131
rwrist 4.70561
rhand -18.0712 -19.1974
rfingers 7.12502
rthumb 8.20158 -49.0182
lclavicle -1.77664e-015 1.63003e-014
lhumerus -15.865 26.1707 9.66647
lradius 23.146
lwrist -18.7733
lhand -15.8832 16.8015
lfingers 7.12502
lthumb 10.3128 46.5286
rfemur -7.94271 -1.33811 9.56868
rtibia 26.521
rfoot -17.2069 -19.0305
rtoes 0.203225
lfemur -11.8167 -6.81049 -10.1511
ltibia 29.9967
lfoot -17.3264 10.1577
ltoes -11.856
1708
root 1.29389 17.854 -3.80502 5.06739 1.761 0.0240571
lowerback 0.656252 -0.208969 -1.21887
upperback -2.10689 -0.279858 1.03823
thorax -2.51808 -0.103712 1.75694
lowerneck -20.2334 -3.57754 -4.35526
upperneck 11.3818 -4.71298 6.65265
head 7.04735 -1.84307 2.32547
rclavicle -7.18731e-015 8.74653e-015
rhumerus -16.0528 -25.8365 -1.6692
rradius 23.9053
rwrist 4.72064
rhand -18.064 -19.1858
rfingers 7.12502
rthumb 8.2086 -49.0064
lclavicle -7.18731e-015 8.74653e-015
lhumerus -15.877 26.1721 9.64932
lradius 23.1451
lwrist -18.7736
lhand -15.8873 16.7925
lfingers 7.12502
lthumb 10.3089 46.5198
rfemur -7.89594 -1.34136 9.56604
rtibia 26.5258
rfoot -17.2349 -19.0334
rtoes 0.210169
lfemur -11.7722 -6.80433 -10.1582
ltibia 29.9951
lfoot -17.3483 10.1434
ltoes -11.8664
1709
root 1.29399 17.8531 -3.79787 5.05063 1.76815 0.0262081
lowerback 0.637207 -0.207144 -1.22415
upperback -2.09964 -0.277416 1.03645
thorax -2.49997 -0.102613 1.75788
lowerneck -20.2281 -3.57968 -4.35914
upperneck 11.3759 -4.71555 6.65804
head 7.04493 -1.84416 2.32758
rclavicle -5.46658e-016 -1.21259e-014
rhumerus -16.0396 -25.8617 -1.65924
rradius 23.8992
rwrist 4.73345
rhand -18.0587 -19.1826
rfingers 7.12502
rthumb 8.21369 -49.0029
lclavicle -5.46658e-016 -1.21259e-014
lhumerus -15.8909 26.1728 9.63022
lradius 23.1455
lwrist -18.7713
lhand -15.89 16.7861
lfingers 7.12502
lthumb 10.3062 46.5136
rfemur -7.85037 -1.34321 9.56466
rtibia 26.5303
rfoot -17.2613 -19.0361
rtoes 0.215948
lfemur -11.7277 -6.79982 -10.1643
ltibia 29.994
lfoot -17.3701 10.1326
ltoes -11.8768
1710
root 1.29409 17.8522 -3.79077 5.03401 1.77312 0.0273839
lowerback 0.617006 -0.204944 -1.22938
upperback -2.09146 -0.274454 1.03512
thorax -2.48028 -0.101272 1.75922
lowerneck -20.2204 -3.58162 -4.3614
upperneck 11.3654 -4.71786 6.6619
head 7.04052 -1.8453 2.32897
rclavicle 3.34207e-015 -1.19271e-014
rhumerus -16.0268 -25.8783 -1.65212
rradius 23.8972
rwrist 4.73693
rhand -18.0552 -19.1897
rfingers 7.12502
rthumb 8.21705 -49.0099
lclavicle 3.34207e-015 -1.19271e-014
lhumerus -15.9054 26.175 9.60959
lradius 23.146
lwrist -18.7692
lhand -15.8915 16.7819
lfingers 7.12502
lthumb 10.3048 46.5094
rfemur -7.80587 -1.34464 9.56403
rtibia 26.5344
rfoot -17.2858 -19.0378
rtoes 0.218758
lfemur -11.6833 -6.7971 -10.1698
ltibia 29.9934
lfoot -17.392 10.1255
ltoes -11.8875
1711
root 1.2942 17.8513 -3.78367 5.01728 1.77657 0.0280667
lowerback 0.595626 -0.202326 -1.23452
upperback -2.08244 -0.270918 1.03383
thorax -2.45909 -0.0996654 1.76053
lowerneck -20.2101 -3.58361 -4.36189
upperneck 11.3507 -4.72027 6.66393
head 7.03424 -1.84668 2.32948
rclavicle 2.65253e-015 -2.78299e-015
rhumerus -16.0161 -25.8803 -1.64742
rradius 23.9003
rwrist 4.72678
rhand -18.0535 -19.207
rfingers 7.12502
rthumb 8.21868 -49.0272
lclavicle 2.65253e-015 -2.78299e-015
lhumerus -15.9188 26.1812 9.58802
lradius 23.1458
lwrist -18.7704
lhand -15.8919 16.7786
lfingers 7.12502
lthumb 10.3045 46.5061
rfemur -7.76167 -1.34713 9.56349
rtibia 26.5381
rfoot -17.3085 -19.0378
rtoes 0.216974
lfemur -11.6388 -6.79627 -10.1752
ltibia 29.9936
lfoot -17.4143 10.1212
ltoes -11.8984
1712
root 1.2943 17.8503 -3.77653 4.99988 1.77968 0.028744
lowerback 0.573507 -0.199441 -1.23965
upperback -2.07267 -0.267021 1.03229
thorax -2.43673 -0.0978986 1.76155
lowerneck -20.1978 -3.58583 -4.36108
upperneck 11.3335 -4.72302 6.66438
head 7.02674 -1.84838 2.32921
rclavicle 5.90142e-016 -9.34288e-015
rhumerus -16.0078 -25.8688 -1.64413
rradius 23.9069
rwrist 4.70553
rhand -18.0537 -19.2313
rfingers 7.12502
rthumb 8.21848 -49.0515
lclavicle 5.90142e-016 -9.34288e-015
lhumerus -15.9298 26.1927 9.56611
lradius 23.1441
lwrist -18.7762
lhand -15.8914 16.7749
lfingers 7.12502
lthumb 10.305 46.5024
rfemur -7.71652 -1.35196 9.5625
rtibia 26.5414
rfoot -17.3301 -19.0358
rtoes 0.209807
lfemur -11.5937 -6.79725 -10.1812
ltibia 29.9945
lfoot -17.4371 10.1187
ltoes -11.9097
1713
root 1.29441 17.8494 -3.7693 4.98126 1.78361 0.0298404
lowerback 0.551331 -0.196459 -1.24496
upperback -2.06232 -0.263006 1.03033
thorax -2.41374 -0.0960837 1.76225
lowerneck -20.1838 -3.58839 -4.35973
upperneck 11.3151 -4.72618 6.66376
head 7.01857 -1.8504 2.32848
rclavicle 3.2551e-015 -1.27222e-014
rhumerus -16.0014 -25.8514 -1.6407
rradius 23.9137
rwrist 4.68099
rhand -18.0548 -19.2576
rfingers 7.12502
rthumb 8.21745 -49.0778
lclavicle 3.2551e-015 -1.27222e-014
lhumerus -15.9377 26.2104 9.54441
lradius 23.1405
lwrist -18.7883
lhand -15.8897 16.77
lfingers 7.12502
lthumb 10.3065 46.4974
rfemur -7.66915 -1.35962 9.56073
rtibia 26.5444
rfoot -17.3513 -19.0322
rtoes 0.197942
lfemur -11.5475 -6.79974 -10.1878
ltibia 29.9962
lfoot -17.4606 10.1164
ltoes -11.9207
1714
root 1.2945 17.8483 -3.76197 4.96122 1.78934 0.0310444
lowerback 0.529775 -0.193565 -1.25007
upperback -2.05162 -0.259111 1.02808
thorax -2.39074 -0.0943396 1.76255
lowerneck -20.1693 -3.5912 -4.35846
upperneck 11.2975 -4.72958 6.66232
head 7.01057 -1.85263 2.32746
rclavicle 6.13437e-015 -1.98785e-014
rhumerus -15.9954 -25.84 -1.6355
rradius 23.9165
rwrist 4.665
rhand -18.0561 -19.2796
rfingers 7.12502
rthumb 8.21622 -49.0998
lclavicle 6.13437e-015 -1.98785e-014
lhumerus -15.9422 26.2326 9.52337
lradius 23.1354
lwrist -18.8044
lhand -15.8871 16.7644
lfingers 7.12502
lthumb 10.3091 46.4917
rfemur -7.61889 -1.36992 9.55877
rtibia 26.547
rfoot -17.373 -19.0275
rtoes 0.182209
lfemur -11.5003 -6.80316 -10.1946
ltibia 29.999
lfoot -17.4852 10.113
ltoes -11.9314
1715
root 1.29457 17.8472 -3.75454 4.93964 1.79732 0.0319622
lowerback 0.509702 -0.190844 -1.25461
upperback -2.04084 -0.255446 1.02576
thorax -2.36849 -0.0927172 1.76247
lowerneck -20.1556 -3.59418 -4.35833
upperneck 11.2823 -4.73303 6.66103
head 7.00352 -1.85486 2.32667
rclavicle 5.46658e-016 -3.97569e-016
rhumerus -15.9886 -25.8463 -1.62731
rradius 23.9118
rwrist 4.66887
rhand -18.057 -19.2923
rfingers 7.12502
rthumb 8.21534 -49.1126
lclavicle 5.46658e-016 -3.97569e-016
lhumerus -15.9438 26.2575 9.50319
lradius 23.1294
lwrist -18.8226
lhand -15.8828 16.7585
lfingers 7.12502
lthumb 10.3132 46.4857
rfemur -7.56547 -1.38198 9.55733
rtibia 26.5491
rfoot -17.3956 -19.0229
rtoes 0.164317
lfemur -11.4523 -6.80665 -10.2009
ltibia 30.003
lfoot -17.5106 10.1075
ltoes -11.9421
1716
root 1.29461 17.846 -3.74705 4.91665 1.80722 0.0319659
lowerback 0.491855 -0.188186 -1.25818
upperback -2.03028 -0.251862 1.02365
thorax -2.34771 -0.0911373 1.76208
lowerneck -20.1433 -3.59714 -4.3599
upperneck 11.2705 -4.73624 6.66038
head 6.99783 -1.85693 2.32639
rclavicle 5.3206e-015 -2.78299e-015
rhumerus -15.9803 -25.8758 -1.61567
rradius 23.8987
rwrist 4.69764
rhand -18.0569 -19.293
rfingers 7.12502
rthumb 8.21539 -49.1132
lclavicle 5.3206e-015 -2.78299e-015
lhumerus -15.943 26.2826 9.48405
lradius 23.1236
lwrist -18.8406
lhand -15.8774 16.7536
lfingers 7.12502
lthumb 10.3184 46.4804
rfemur -7.50929 -1.39426 9.55735
rtibia 26.5506
rfoot -17.4192 -19.0193
rtoes 0.145278
lfemur -11.4038 -6.80929 -10.2058
ltibia 30.0085
lfoot -17.537 10.0995
ltoes -11.9527
1717
root 1.2946 17.8448 -3.73954 4.89286 1.81828 0.0305343
lowerback 0.476191 -0.185396 -1.26031
upperback -2.02018 -0.248084 1.02192
thorax -2.32866 -0.0894659 1.76129
lowerneck -20.133 -3.59993 -4.36328
upperneck 11.2621 -4.739 6.66055
head 6.99365 -1.8587 2.32672
rclavicle 9.74977e-015 -5.96354e-015
rhumerus -15.9709 -25.9278 -1.60106
rradius 23.8785
rwrist 4.74997
rhand -18.0558 -19.2826
rfingers 7.12502
rthumb 8.21651 -49.1028
lclavicle 9.74977e-015 -5.96354e-015
lhumerus -15.9406 26.3055 9.46596
lradius 23.1189
lwrist -18.8557
lhand -15.8711 16.7501
lfingers 7.12502
lthumb 10.3245 46.4767
rfemur -7.45154 -1.40573 9.55946
rtibia 26.5516
rfoot -17.4434 -19.0173
rtoes 0.125964
lfemur -11.3554 -6.81011 -10.2087
ltibia 30.0153
lfoot -17.5638 10.0893
ltoes -11.9643
1718
root 1.29457 17.8436 -3.73201 4.86874 1.8296 0.027892
lowerback 0.462414 -0.182346 -1.26127
upperback -2.01066 -0.243947 1.02051
thorax -2.31128 -0.0876149 1.76017
lowerneck -20.1243 -3.60234 -4.3683
upperneck 11.2566 -4.74104 6.66168
head 6.99068 -1.86005 2.32771
rclavicle 5.87036e-015 5.96354e-016
rhumerus -15.9609 -25.9947 -1.5849
rradius 23.8544
rwrist 4.8181
rhand -18.0541 -19.2642
rfingers 7.12502
rthumb 8.21815 -49.0843
lclavicle 5.87036e-015 5.96354e-016
lhumerus -15.9375 26.3236 9.44879
lradius 23.1162
lwrist -18.8658
lhand -15.865 16.7489
lfingers 7.12502
lthumb 10.3304 46.4751
rfemur -7.3933 -1.41615 9.5633
rtibia 26.5522
rfoot -17.4672 -19.0166
rtoes 0.106395
lfemur -11.3076 -6.80851 -10.2099
ltibia 30.0235
lfoot -17.5909 10.0772
ltoes -11.9773
